<svg width="128" height="128" viewBox="0 0 128 128" fill="none" xmlns="http://www.w3.org/2000/svg">
  <rect width="128" height="128" rx="16" fill="#818CF8" />
  <path d="M29 35H65C73.8366 35 81 42.1634 81 51V51C81 59.8366 73.8366 67 65 67H29V35Z" fill="#1E1E2F"/>
  <path d="M29 61H77C85.8366 61 93 68.1634 93 77V77C93 85.8366 85.8366 93 77 93H29V61Z" fill="#1E1E2F"/>
  <path d="M42 35V93" stroke="#818CF8" stroke-width="8" stroke-linecap="round"/>
  <path d="M65 52.5C70.2467 52.5 74.5 48.2467 74.5 43C74.5 37.7533 70.2467 33.5 65 33.5C59.7533 33.5 55.5 37.7533 55.5 43C55.5 48.2467 59.7533 52.5 65 52.5Z" fill="#818CF8"/>
  <path d="M77 77.5C82.2467 77.5 86.5 73.2467 86.5 68C86.5 62.7533 82.2467 58.5 77 58.5C71.7533 58.5 67.5 62.7533 67.5 68C67.5 73.2467 71.7533 77.5 77 77.5Z" fill="#818CF8"/>
</svg>